<svg id="Layer_1" viewBox="0 0 24 24" xmlns="http://www.w3.org/2000/svg" data-name="Layer 1"><path fill="#01463c" d="m12.163 9.017c1.444-2.36 2.369-4.667 6.208-7.795l1.258 1.555c-2.148 1.737-3.385 3.336-4.272 4.755.788-.722 1.567-1.354 2.252-1.76 2.851-1.689 4.716.112 4.716.112s.684 2.501-2.168 4.19c-.817.484-1.978.931-3.217 1.325 1.677-.068 3.722-.337 6.187-1.327l.746 1.856c-4.03 1.562-6.331 1.487-9.192 1.495.093-.462-.034-.962-.454-1.242-.525-.355-2.227-.122-2.227-.122s1.147-1.279 1.147-1.912c0-.569-.43-1.025-.984-1.13zm2.517 4.406c-.032.116-.076.246-.147.352-.355.525-1.069.662-1.593.307-.525-.355-.94-2.022-.94-2.022s-.416 1.667-.94 2.022c-.525.355-1.238.218-1.593-.307s-.218-1.238.307-1.593 2.227-.122 2.227-.122-1.147-1.279-1.147-1.912c-.005-.686.627-1.249 1.311-1.13.234-1.542.706-4.275 2.141-6.481-.585-2.057-2.304-2.536-2.304-2.536s-2.5.686-2.5 4c0 .912.19 2.079.465 3.292-.86-1.534-1.73-3.5-2.203-6.475l-1.976.314c.762 4.622 2.235 6.845 3.507 8.931-1.456-1.155-2.933-2.69-3.926-4.771-2.265-.785-3.692.593-3.692.593s-.684 2.501 2.168 4.19c1.27.753 3.369 1.418 5.306 1.926-1.938.508-4.036 1.174-5.306 1.926-2.851 1.689-2.168 4.189-2.168 4.189s1.865 1.801 4.716.112c1.228-.727 2.758-2.173 4.102-3.583-.528 1.875-.993 3.928-.993 5.355 0 3.314 2.5 4 2.5 4s2.5-.686 2.5-4c0-1.428-.464-3.48-.993-5.355 1.344 1.41 2.873 2.856 4.102 3.583 2.851 1.689 4.716-.112 4.716-.112s.509-1.876-1.208-3.476c-2.546.363-4.912-.611-6.436-1.216z"/></svg>