<?xml version="1.0" encoding="UTF-8"?>
<svg xmlns="http://www.w3.org/2000/svg" width="16" height="16" id="Layer_1" data-name="Layer 1" viewBox="0 0 24 24">
  <path fill="pink" d="m14.687,17.048c-3.443.291-5.245,2.05-6.187,3.645v-3.738c1.968-.249,3.5-1.915,3.5-3.949,0-2.009-1.575-4.344-2.635-5.424-.727-.742-2.003-.742-2.731,0-1.059,1.08-2.634,3.416-2.634,5.424,0,2.034,1.532,3.7,3.5,3.949v3.72c-.942-1.605-2.743-3.374-6.187-3.665-.384-.032-.767.131-1.021.439-.269.326-.359.764-.243,1.171,1.387,4.861,5.577,5.375,7.284,5.375.325,0,1.031.004,1.382.004,1.739,0,5.861-.528,7.234-5.342.116-.408.025-.846-.243-1.172-.254-.307-.639-.474-1.021-.438Zm-9.687-4.042c0-1.697,1.44-3.798,2.348-4.724.14-.142.321-.217.512-.248-.443,1.117-.86,2.959-.86,4.472,0,.276.224.5.5.5s.5-.224.5-.5c0-1.349.379-3.064.78-4.082.909.982,2.22,2.961,2.22,4.582,0,1.654-1.346,3-3,3s-3-1.346-3-3Zm-3.989,5.341c-.025-.091-.006-.189.055-.262.024-.03.076-.079.149-.079.005,0,.01,0,.015,0,4.623.391,5.866,3.699,6.177,4.998-1.38.028-5.15-.294-6.396-4.657Zm13.979.037c-1.245,4.363-5.015,4.669-6.396,4.624.312-1.29,1.555-4.573,6.177-4.964.075-.003.139.046.164.078.061.073.08.171.055.262Zm-1.185-15.28c0-.606.492-1.098,1.098-1.098s1.098.492,1.098,1.098-.491,1.098-1.098,1.098-1.098-.492-1.098-1.098Zm8.053,1.493c.095-.307.143-.614.143-.917C22,1.985,21.488.006,20.046.006s-3.046,2.189-3.046,3.673c0,.562.033,1.035.102,1.428-.394-.068-.867-.102-1.429-.102-1.483,0-3.673,1.604-3.673,3.045s1.979,1.955,3.673,1.955c.3,0,.609-.049.918-.144.277,1.752,1.026,2.144,1.64,2.144,1.174,0,1.77-.841,1.77-2.5,0-.414-.064-1.089-.192-1.692.603.128,1.278.192,1.692.192,1.659,0,2.5-.595,2.5-1.769,0-.613-.392-1.362-2.143-1.64Zm-3.627,6.409c-.345,0-.634-.762-.72-1.897-.014-.168-.11-.319-.258-.4-.075-.042-.158-.062-.241-.062-.08,0-.161.02-.234.058-.259.138-.661.301-1.104.301-1.285,0-2.673-.365-2.673-.955,0-.741,1.545-2.045,2.673-2.045,1.481,0,1.875.262,1.957.337.008.008.016.016.023.024,0,0,0,0,.001,0l.959.959c.148.215.387,1.335.387,2.18,0,1.5-.481,1.5-.77,1.5Zm3.27-4c-.844,0-1.965-.239-2.178-.385l-.962-.962c-.008-.008-.016-.016-.023-.024-.075-.082-.337-.475-.337-1.956,0-1.128,1.305-2.673,2.046-2.673.589,0,.954,1.388.954,2.673,0,.442-.164.845-.302,1.104-.078.149-.077.328.005.475.081.148.231.245.399.257,1.135.086,1.897.376,1.897.721,0,.288,0,.769-1.5.769Z"/>
</svg>
