<svg id="Layer_1" width="50" height="50" viewBox="0 0 24 24" xmlns="http://www.w3.org/2000/svg" data-name="Layer 1"><path fill="#8bc2e3" d="m20.5 2h3.5v-2h-5.038c-2.462 0-13.962.777-13.962 5.5 0 1.712 1.049 2.843 1.892 3.752.594.642 1.108 1.195 1.108 1.748 0 1.339-.966 2.151-2.673 3.471-2.248 1.738-5.327 4.118-5.327 9.529h21c0-2.247.826-3.948 1.626-5.594.707-1.454 1.374-2.828 1.374-4.406 0-2.969-2.652-5.016-4.993-6.822-1.409-1.088-3.007-2.321-3.007-3.178 0-1.673 1.65-2 4.5-2zm-1.314 19.983c-.063.003-.122.017-.186.017-1.193 0-2.267-.525-3-1.357-.733.832-1.807 1.357-3 1.357-1.201 0-2.266-.542-3-1.382-.734.84-1.799 1.382-3 1.382-1.733 0-3.197-1.114-3.752-2.658.314-.497.671-.939 1.054-1.342h.697c0 1.103.897 2 2 2s2-.897 2-2h2c0 1.103.897 2 2 2s2-.897 2-2h2c0 1.103.897 2 2 2 .288 0 .561-.064.809-.174-.254.669-.478 1.379-.623 2.158zm2.814-7.983c0 .638-.187 1.28-.455 1.95-1.007-.116-1.908-.584-2.545-1.307-.733.832-1.807 1.357-3 1.357s-2.267-.525-3-1.357c-.733.832-1.807 1.357-3 1.357-.895 0-1.713-.304-2.378-.803.53-.445 1.02-.92 1.42-1.452.286.158.609.255.958.255 1.103 0 2-.897 2-2h2c0 1.103.897 2 2 2s2-.897 2-2h2c0 1.103.897 2 2 2zm-4.215-5.239c.443.342.886.687 1.314 1.037-.309.13-.662.202-1.099.202-1.193 0-2.267-.525-3-1.357-.733.832-1.807 1.357-3 1.357-2.199-.004-3.987-1.824-4-4h2c0 1.103.897 2 2 2s2-.897 2-2h.751c.715.964 1.851 1.847 3.035 2.761z"/></svg>