<?xml version="1.0" encoding="UTF-8"?>
<svg xmlns="http://www.w3.org/2000/svg" id="Capa_20" data-name="Capa 20" width="16" height="16" viewBox="0 0 24 24">
  <path fill="#ff6a3d" d="m10.258,9.467l4.452,2.533-4.452,2.533v-5.065Zm0,0"/>
  <path fill="#ff6a3d" d="m12,0C5.373,0,0,5.373,0,12s5.373,12,12,12,12-5.373,12-12S18.627,0,12,0h0Zm8.16,16.126c-.195.737-.773,1.318-1.506,1.516-1.328.358-6.654.358-6.654.358,0,0-5.326,0-6.654-.358-.733-.197-1.31-.778-1.506-1.516-.357-1.337-.357-4.126-.357-4.126,0,0,0-2.789.357-4.126.195-.737.773-1.318,1.506-1.515,1.328-.358,6.654-.358,6.654-.358,0,0,5.326,0,6.654.358.733.197,1.31.778,1.506,1.515.356,1.337.356,4.126.356,4.126,0,0,0,2.789-.356,4.126h0Zm0,0"/>
</svg>
